<svg width="1024" height="1024" viewBox="0 0 1024 1024" fill="none" xmlns="http://www.w3.org/2000/svg">
  <g fill="#FFFFFF">
    <g transform="translate(-34 -34)">
      <path d="M224 178 H496 Q526 178 526 208 V294 Q526 324 496 324 H342 Q324 324 324 342 V428 Q324 458 294 458 H224 Q178 458 178 412 V224 Q178 178 224 178 Z"/>
    </g>
    <g transform="translate(34 -34)">
      <path d="M600 178 H802 Q846 178 846 222 V536 Q846 580 802 580 H730 Q700 580 700 550 V352 Q700 334 682 334 H600 Q570 334 570 304 V208 Q570 178 600 178 Z"/>
    </g>
    <g transform="translate(34 34)">
      <path d="M700 620 Q700 590 730 590 H802 Q846 590 846 634 V802 Q846 846 802 846 H516 Q486 846 486 816 V730 Q486 700 516 700 H670 Q700 700 700 670 V620 Z"/>
    </g>
    <g transform="translate(-34 34)">
      <path d="M178 508 Q178 478 208 478 H296 Q328 478 328 510 V680 Q328 700 348 700 H424 Q454 700 454 730 V816 Q454 846 424 846 H224 Q178 846 178 800 V508 Z"/>
    </g>
    <rect x="432" y="432" width="160" height="160" rx="36"/>
  </g>
</svg>
