<svg width="32" height="32" viewBox="0 0 32 32" fill="none" xmlns="http://www.w3.org/2000/svg">
	<!-- back asset -->
	<path d="M7 4.5H17L21 8.5V22.5C21 24 20 25 18.5 25H7C5.5 25 4.5 24 4.5 22.5V7C4.5 5.5 5.5 4.5 7 4.5Z" fill="#475569"/>
	<path d="M17 4.5V8.5H21" fill="#94A3B8"/>

	<!-- front asset -->
	<path d="M13.5 7.5H23.5L27.5 11.5V25C27.5 26.5 26.5 27.5 25 27.5H13.5C12 27.5 11 26.5 11 25V10C11 8.5 12 7.5 13.5 7.5Z" fill="#CBD5E1"/>
	<path d="M23.5 7.5V11.5H27.5" fill="#64748B"/>

	<!-- asset types -->
	<rect x="14" y="14" width="4.5" height="4.5" rx="1.2" fill="#60A5FA"/>
	<rect x="21" y="14" width="3.5" height="3.5" rx="1" fill="#A78BFA"/>
	<path d="M15 22H24" stroke="#64748B" stroke-width="2" stroke-linecap="round"/>
</svg>
