<svg width="32" height="32" viewBox="0 0 32 32" fill="none" xmlns="http://www.w3.org/2000/svg">
	<!-- back asset -->
	<path d="M6.5 4H16.5L20.8 8.3V22.5C20.8 24.2 19.7 25.3 18 25.3H6.5C4.8 25.3 3.7 24.2 3.7 22.5V6.8C3.7 5.1 4.8 4 6.5 4Z" fill="#2563EB"/>
	<path d="M16.5 4V8.3H20.8" fill="#93C5FD"/>

	<!-- front asset -->
	<path d="M13.2 7H23.5L28.3 11.8V25.3C28.3 27 27.2 28.1 25.5 28.1H13.2C11.5 28.1 10.4 27 10.4 25.3V9.8C10.4 8.1 11.5 7 13.2 7Z" fill="#EFF6FF"/>
	<path d="M23.5 7V11.8H28.3" fill="#60A5FA"/>

	<!-- colorful asset types -->
	<rect x="13.8" y="14" width="5" height="5" rx="1.3" fill="#2563EB"/>
	<rect x="21.2" y="14" width="4.2" height="4.2" rx="1.1" fill="#8B5CF6"/>

	<!-- workflow line -->
	<path d="M14.5 23H18.5L20.5 21L23.8 24.3" stroke="#2563EB" stroke-width="2.3" stroke-linecap="round" stroke-linejoin="round"/>
</svg>
