<svg width="32" height="32" viewBox="0 0 32 32" fill="none" xmlns="http://www.w3.org/2000/svg">
	<!-- tilted image card -->
	<path d="M6.2 4.8L21.8 3C23.6 2.8 25 4 25.2 5.8L26.9 21C27.1 22.8 25.9 24.2 24.1 24.4L8.5 26.2C6.7 26.4 5.3 25.2 5.1 23.4L3.4 8.2C3.2 6.4 4.4 5 6.2 4.8Z" fill="#EFF6FF"/>

	<!-- colorful image content -->
	<circle cx="19.8" cy="9.2" r="2.2" fill="#F59E0B"/>
	<path d="M7.5 20.7L13.2 13.9L16.8 17.5L20.6 12.7L24.5 20.4L7.5 22.4Z" fill="#2563EB"/>

	<!-- active magnifier -->
	<circle cx="22.5" cy="22.5" r="5.5" fill="#2563EB"/>
	<circle cx="22.5" cy="22.5" r="2.6" fill="white"/>
	<path d="M26.4 26.4L29.3 29.3" stroke="#2563EB" stroke-width="3.2" stroke-linecap="round"/>

	<!-- selected thumbnail strip -->
	<rect x="6.5" y="27" width="6" height="2.7" rx="1.35" fill="#2563EB"/>
	<rect x="14.5" y="27" width="5" height="2.7" rx="1.35" fill="#8B5CF6"/>
</svg>
