<svg width="32" height="32" viewBox="0 0 32 32" fill="none" xmlns="http://www.w3.org/2000/svg">
	<!-- tilted image card -->
	<path d="M6.5 5.5L21.5 3.8C23.1 3.6 24.3 4.6 24.5 6.2L26.2 21.2C26.4 22.8 25.4 24 23.8 24.2L8.8 25.9C7.2 26.1 6 25.1 5.8 23.5L4.1 8.5C3.9 6.9 4.9 5.7 6.5 5.5Z" fill="#CBD5E1"/>

	<!-- image content -->
	<circle cx="19.5" cy="9.5" r="2" fill="#FBBF24"/>
	<path d="M8.2 20.5L13.4 14.3L16.8 17.6L20.2 13.2L23.8 20.2L8.2 22Z" fill="#64748B"/>

	<!-- magnifier -->
	<circle cx="22.5" cy="22.5" r="5" fill="#334155"/>
	<circle cx="22.5" cy="22.5" r="2.4" fill="#E2E8F0"/>
	<path d="M26 26L29 29" stroke="#334155" stroke-width="3" stroke-linecap="round"/>

	<!-- thumbnail strip -->
	<rect x="7" y="27" width="5" height="2.5" rx="1.25" fill="#60A5FA"/>
	<rect x="14" y="27" width="5" height="2.5" rx="1.25" fill="#A78BFA"/>
</svg>
