<svg xmlns="http://www.w3.org/2000/svg" width="1024" height="1024" viewBox="0 0 1024 1024">
  <path fill="#7AD8FF" d="M190 144H462Q492 144 492 174V260Q492 290 462 290H308Q290 290 290 308V394Q290 424 260 424H190Q144 424 144 378V190Q144 144 190 144Z"/>
  <path fill="#65F4D8" d="M634 144H836Q880 144 880 188V502Q880 546 836 546H764Q734 546 734 516V318Q734 300 716 300H634Q604 300 604 270V174Q604 144 634 144Z"/>
  <path fill="#A98BFF" d="M734 654Q734 624 764 624H836Q880 624 880 668V836Q880 880 836 880H550Q520 880 520 850V764Q520 734 550 734H704Q734 734 734 704V654Z"/>
  <path fill="#55F0A8" d="M144 542Q144 512 174 512H262Q294 512 294 544V714Q294 734 314 734H390Q420 734 420 764V850Q420 880 390 880H190Q144 880 144 834V542Z"/>
  <path fill="#FFFFFF" d="M432 432H592V592H432Z"/>
</svg>
